30 Days Of Night Dark Days (2010) 1080P AC3+DTS Eng-NLSubs


PLOT

After surviving the incidents in Barrow, Alaska, Stella Olemaun relocates to 
Los Angeles, where she intentionally attracts the attention of the local 
vampire population in order to avenge the death of her husband, Eben. 


MM:    http://www.moviemeter.nl/film/63023

IMDB:    http://www.imdb.com/title/tt1320304/

INFO

Source.......: 1080P BluRay 
FRAME RATE...: 23.976Fps 
VIDEO CODEC..: X264
AUDIO CODEC..: AC3
RESOLUTION...: 1920x1040
RUNTIME......: 92 MINS 
GENERE.......: Horror | Thriller  
LANGUAGE.....: English
SUBTITLES....: English & Dutch

Thanks To Bradje

Enjoy This Nice Release


      Complete name : 30.Days.Of.Night.Dark.Days.2010.1080P.AC3.DTS.Eng.NLSubs.mkv
      Format : Matroska
      File size : 8.36 GiB
      Duration : 1h 32mn
      Overall bit rate : 12.9 Mbps
      Movie name : 30 Days Of Night Dark Days (2010) 1080P.X264.NL.SUBBED.Bradje
      Encoded date : UTC 2010-09-25 18:26:08
      Writing application : mkvmerge v3.3.0 ('Language') built on Mar 24 2010 14:59:24
      Writing library : libebml v0.8.0 + libmatroska v0.9.0
   Video #1
      ID : 1
      Format : AVC
      Format/Info : Advanced Video Codec
      Format profile : High@L5.0
      Format settings, CABAC : Yes
      Format settings, ReFrames : 5 frames
      Muxing mode : Container profile=Unknown@5.0
      Codec ID : V_MPEG4/ISO/AVC
      Duration : 1h 32mn
      Bit rate : 10.5 Mbps
      Nominal bit rate : 10.8 Mbps
      Width : 1 920 pixels
      Height : 1 040 pixels
      Display aspect ratio : 16:9
      Frame rate : 23.976 fps
      Resolution : 24 bits
      Colorimetry : 4:2:0
      Scan type : Progressive
      Bits/(Pixel*Frame) : 0.220
      Stream size : 6.80 GiB (81%)
      Title : x264
      Writing library : x264 core 105 r1724 b02df7b
      Encoding settings : cabac=1 / ref=5 / deblock=1:0:0 / analyse=0x3:0x133 / me=umh / 
subme=7 / psy=1 / psy_rd=1.00:0.00 / mixed_ref=1 / me_range=16 / chroma_me=1 / trellis=1 / 
8x8dct=1 / cqm=0 / deadzone=21,11 / fast_pskip=0 / chroma_qp_offset=-2 / threads=12 / 
sliced_threads=0 / nr=0 / decimate=1 / interlaced=0 / constrained_intra=0 / bframes=3 / 
b_pyramid=2 / b_adapt=1 / b_bias=0 / direct=1 / weightb=1 / open_gop=0 / weightp=2 / 
keyint=240 / keyint_min=25 / scenecut=40 / intra_refresh=0 / rc_lookahead=40 / rc=2pass / 
mbtree=1 / bitrate=10798 / ratetol=1.0 / qcomp=0.60 / qpmin=10 / qpmax=51 / qpstep=4 / 
cplxblur=20.0 / qblur=0.5 / ip_ratio=1.40 / aq=1:1.00
      Language : English
   Audio #2
      ID : 2
      Format : AC-3
      Format/Info : Audio Coding 3
      Codec ID : A_AC3
      Duration : 1h 32mn
      Bit rate mode : Constant
      Bit rate : 640 Kbps
      Channel(s) : 6 channels
      Channel positions : Front: L C R, Surround: L R, LFE
      Sampling rate : 48.0 KHz
      Stream size : 423 MiB (5%)
      Title : AC3
      Language : English
   Audio #3
      ID : 3
      Format : DTS
      Format/Info : Digital Theater Systems
      Codec ID : A_DTS
      Duration : 1h 32mn
      Bit rate mode : Constant
      Bit rate : 1 510 Kbps
      Channel(s) : 6 channels
      Channel positions : Front: L C R, Surround: L R, LFE
      Sampling rate : 48.0 KHz
      Resolution : 24 bits
      Stream size : 998 MiB (12%)
      Title : DTS
      Language : English
   Text #4
      ID : 4
      Format : UTF-8
      Codec ID : S_TEXT/UTF8
      Codec ID/Info : UTF-8 Plain Text
      Title : Subtitles
      Language : Dutch
   Text #5
      ID : 5
      Format : UTF-8
      Codec ID : S_TEXT/UTF8
      Codec ID/Info : UTF-8 Plain Text
      Title : Subtitles
      Language : English
